<svg id="Layer_1" data-name="Layer 1" xmlns="http://www.w3.org/2000/svg" viewBox="0 0 253.02 53.39"><title>continuousimprover_withartboard</title><path d="M76.56,25.19v2.5H74.17V44.4H71.4V27.69H69v-2.5Z" transform="translate(-6.67 -7.01)" style="fill:#002b55"/><path d="M77.84,44.4V25.19h2.77v7.37h1.67V25.19h2.77V44.4H82.28V35.06H80.61V44.4Z" transform="translate(-6.67 -7.01)" style="fill:#002b55"/><path d="M87,44.4V25.19h6.16v2.5h-3.4v5H93v2.5H89.72V41.9h3.45v2.5Z" transform="translate(-6.67 -7.01)" style="fill:#002b55"/><path d="M103.32,32.2V28.29a1.58,1.58,0,0,0-.21-1,1,1,0,0,0-.71-.23.93.93,0,0,0-.68.23,1.36,1.36,0,0,0-.26,1v13a1.32,1.32,0,0,0,.26,1,.77.77,0,0,0,.68.25.84.84,0,0,0,.71-.25,1.52,1.52,0,0,0,.21-1V37.14h2.76v4.4a3.38,3.38,0,0,1-.32,1.54,2.54,2.54,0,0,1-.86,1,3.62,3.62,0,0,1-1.17.51,4.87,4.87,0,0,1-1.36.2,4.31,4.31,0,0,1-1.27-.2,3.44,3.44,0,0,1-1.17-.51,2.72,2.72,0,0,1-1.24-2.53V28.05a3,3,0,0,1,.38-1.59,2.49,2.49,0,0,1,.86-1,3.9,3.9,0,0,1,1.17-.52,6.08,6.08,0,0,1,1.27-.13,4.71,4.71,0,0,1,2.53.65,2.57,2.57,0,0,1,.86,1,3.48,3.48,0,0,1,.32,1.59V32.2Z" transform="translate(-6.67 -7.01)" style="fill:#002b55"/><path d="M107.67,28.05a3,3,0,0,1,.38-1.59,2.49,2.49,0,0,1,.86-1,4.13,4.13,0,0,1,1.17-.52,6.18,6.18,0,0,1,1.28-.13,4.68,4.68,0,0,1,2.52.65,2.57,2.57,0,0,1,.86,1,3.48,3.48,0,0,1,.32,1.59V41.54a3.38,3.38,0,0,1-.32,1.54,2.54,2.54,0,0,1-.86,1,3.62,3.62,0,0,1-1.17.51,4.74,4.74,0,0,1-1.35.2,4.38,4.38,0,0,1-1.28-.2,3.62,3.62,0,0,1-1.17-.51,2.72,2.72,0,0,1-1.24-2.53Zm2.77,13.24a1.32,1.32,0,0,0,.26,1,.77.77,0,0,0,.68.25.84.84,0,0,0,.71-.25,1.52,1.52,0,0,0,.21-1v-13a1.58,1.58,0,0,0-.21-1,1,1,0,0,0-.71-.23.93.93,0,0,0-.68.23,1.36,1.36,0,0,0-.26,1Z" transform="translate(-6.67 -7.01)" style="fill:#002b55"/><path d="M121,25.19l.79,5.54a104,104,0,0,1,1.31,10.87h.1v-1c0-1.87-.06-3.75-.07-5.62V25.19h2.26V44.4h-4.1L120,34.79q-.57-3.48-.83-6.81h-.1c0,.85,0,1.67.08,2.48V44.4H116.9V25.19Z" transform="translate(-6.67 -7.01)" style="fill:#002b55"/><path d="M134.47,25.19v2.5h-2.39V44.4h-2.76V27.69H126.9v-2.5Z" transform="translate(-6.67 -7.01)" style="fill:#002b55"/><path d="M135.86,44.4V25.19h2.77V44.4Z" transform="translate(-6.67 -7.01)" style="fill:#002b55"/><path d="M144.54,25.19l.79,5.54a106.76,106.76,0,0,1,1.31,10.87h.1v-1c0-1.87-.06-3.75-.08-5.62V25.19h2.26V44.4h-4.09l-1.32-9.61q-.57-3.48-.83-6.81h-.1c0,.85,0,1.67.08,2.48V44.4h-2.27V25.19Z" transform="translate(-6.67 -7.01)" style="fill:#002b55"/><path d="M158,25.19V41.54a3.25,3.25,0,0,1-.33,1.54,2.44,2.44,0,0,1-.85,1,3.58,3.58,0,0,1-1.18.51,4.74,4.74,0,0,1-1.35.2,4.31,4.31,0,0,1-1.27-.2,3.44,3.44,0,0,1-1.17-.51,2.72,2.72,0,0,1-1.24-2.53V25.19h2.77v16.1a1.27,1.27,0,0,0,.26,1,.76.76,0,0,0,.68.25.86.86,0,0,0,.71-.25,1.52,1.52,0,0,0,.21-1V25.19Z" transform="translate(-6.67 -7.01)" style="fill:#002b55"/><path d="M159.63,28.05a3,3,0,0,1,.38-1.59,2.49,2.49,0,0,1,.86-1,4.13,4.13,0,0,1,1.17-.52,6.08,6.08,0,0,1,1.27-.13,4.71,4.71,0,0,1,2.53.65,2.57,2.57,0,0,1,.86,1,3.48,3.48,0,0,1,.32,1.59V41.54a3.38,3.38,0,0,1-.32,1.54,2.54,2.54,0,0,1-.86,1,3.62,3.62,0,0,1-1.17.51,4.87,4.87,0,0,1-1.36.2,4.31,4.31,0,0,1-1.27-.2,3.62,3.62,0,0,1-1.17-.51,2.72,2.72,0,0,1-1.24-2.53Zm2.77,13.24a1.32,1.32,0,0,0,.26,1,.77.77,0,0,0,.68.25.84.84,0,0,0,.71-.25,1.52,1.52,0,0,0,.21-1v-13a1.58,1.58,0,0,0-.21-1,1,1,0,0,0-.71-.23.93.93,0,0,0-.68.23,1.36,1.36,0,0,0-.26,1Z" transform="translate(-6.67 -7.01)" style="fill:#002b55"/><path d="M176,25.19V41.54a3.25,3.25,0,0,1-.32,1.54,2.46,2.46,0,0,1-.86,1,3.62,3.62,0,0,1-1.17.51,4.74,4.74,0,0,1-1.35.2,4.38,4.38,0,0,1-1.28-.2,3.62,3.62,0,0,1-1.17-.51,2.72,2.72,0,0,1-1.24-2.53V25.19h2.77v16.1a1.32,1.32,0,0,0,.26,1,.77.77,0,0,0,.68.25.83.83,0,0,0,.71-.25,1.52,1.52,0,0,0,.21-1V25.19Z" transform="translate(-6.67 -7.01)" style="fill:#002b55"/><path d="M180.36,41.29a1.27,1.27,0,0,0,.27,1,.76.76,0,0,0,.68.25.86.86,0,0,0,.71-.25,1.61,1.61,0,0,0,.2-1v-2a4,4,0,0,0-.71-2.05,21.93,21.93,0,0,0-1.59-2A19.65,19.65,0,0,1,178.36,33a3.8,3.8,0,0,1-.76-2.24V28.05a3,3,0,0,1,.37-1.59,2.57,2.57,0,0,1,.86-1,4.13,4.13,0,0,1,1.17-.52,6.18,6.18,0,0,1,1.28-.13,4.65,4.65,0,0,1,2.52.65,2.49,2.49,0,0,1,.86,1,3.35,3.35,0,0,1,.33,1.59v4h-2.77v-3.8a1.67,1.67,0,0,0-.2-1,1,1,0,0,0-.71-.23.92.92,0,0,0-.68.23,1.31,1.31,0,0,0-.27,1v2.38a1.17,1.17,0,0,0,.23.59,8.19,8.19,0,0,0,.54.83c.44.64,1,1.33,1.56,2.08a24,24,0,0,1,1.59,2.14,4,4,0,0,1,.71,1.83v3.4a3.25,3.25,0,0,1-.33,1.54,2.46,2.46,0,0,1-.86,1,3.44,3.44,0,0,1-1.17.51,4.74,4.74,0,0,1-1.35.2,4.38,4.38,0,0,1-1.28-.2,3.62,3.62,0,0,1-1.17-.51,2.72,2.72,0,0,1-1.23-2.53V37.11h2.76Z" transform="translate(-6.67 -7.01)" style="fill:#002b55"/><path d="M191.27,44.4V25.19H194V44.4Z" transform="translate(-6.67 -7.01)" style="fill:#002b55"/><path d="M200.08,44.4l-1-9.24q-.37-3.46-.75-6.42l-.1,0c0,1.24.08,2.49.1,3.76V44.4h-2.42V25.19H200l.89,7.94q.3,2.05.45,6h.12q.08-3.33.26-6l.76-8h4.1V44.4h-2.42V35.54q0-3.28.1-6.82h-.1c-.25,2.66-.47,5.13-.68,7.39l-.94,8.29Z" transform="translate(-6.67 -7.01)" style="fill:#002b55"/><path d="M216.09,33.1q0,3.93-3.43,3.93h-1.2V44.4H208.7V25.19h3A5.43,5.43,0,0,1,215,26a3.55,3.55,0,0,1,1.1,2.95Zm-4.63,1.64a4.76,4.76,0,0,0,1.29-.1.77.77,0,0,0,.57-.77V29.31a2.9,2.9,0,0,0-.26-1.42,1.21,1.21,0,0,0-1.06-.41h-.54Z" transform="translate(-6.67 -7.01)" style="fill:#002b55"/><path d="M217.52,44.4V25.19h3.73a4.55,4.55,0,0,1,2.69.7,3.24,3.24,0,0,1,1,2.6v2.72a3.31,3.31,0,0,1-.47,1.86,3.26,3.26,0,0,1-2.27,1v0a3.74,3.74,0,0,1,1.74.57,1.7,1.7,0,0,1,.63.67,2.52,2.52,0,0,1,.25,1.1c.06,1.28.11,2.58.15,3.92a30,30,0,0,0,.31,4h-2.77a22.31,22.31,0,0,1-.34-3.71q0-1.94,0-3.63a1.67,1.67,0,0,0-.4-1.27,2.15,2.15,0,0,0-1.46-.3V44.4Zm2.76-11.25h.57a1.21,1.21,0,0,0,1.06-.38,1.39,1.39,0,0,0,.23-.86V28.43c0-.65-.4-1-1.13-.95h-.73Z" transform="translate(-6.67 -7.01)" style="fill:#002b55"/><path d="M226.5,28.05a3,3,0,0,1,.38-1.59,2.42,2.42,0,0,1,.86-1,3.9,3.9,0,0,1,1.17-.52,6.08,6.08,0,0,1,1.27-.13,4.71,4.71,0,0,1,2.53.65,2.47,2.47,0,0,1,.85,1,3.35,3.35,0,0,1,.33,1.59V41.54a3.25,3.25,0,0,1-.33,1.54,2.44,2.44,0,0,1-.85,1,3.58,3.58,0,0,1-1.18.51,4.74,4.74,0,0,1-1.35.2,4.31,4.31,0,0,1-1.27-.2,3.44,3.44,0,0,1-1.17-.51,2.72,2.72,0,0,1-1.24-2.53Zm2.77,13.24a1.27,1.27,0,0,0,.26,1,.76.76,0,0,0,.68.25.84.84,0,0,0,.71-.25,1.52,1.52,0,0,0,.21-1v-13a1.58,1.58,0,0,0-.21-1,1,1,0,0,0-.71-.23.92.92,0,0,0-.68.23,1.31,1.31,0,0,0-.26,1Z" transform="translate(-6.67 -7.01)" style="fill:#002b55"/><path d="M237.77,25.19l.87,8q.3,3.75.62,7.56h.05c.18-2.33.37-4.63.55-6.92l.84-8.66h2.76L241.28,44.4H237.1L235,25.19Z" transform="translate(-6.67 -7.01)" style="fill:#002b55"/><path d="M244.7,44.4V25.19h6.17v2.5h-3.4v5h3.27v2.5h-3.27V41.9h3.45v2.5Z" transform="translate(-6.67 -7.01)" style="fill:#002b55"/><path d="M252,44.4V25.19h3.73a4.59,4.59,0,0,1,2.7.7,3.27,3.27,0,0,1,1,2.6v2.72a3.23,3.23,0,0,1-.47,1.86,3.26,3.26,0,0,1-2.27,1v0a3.82,3.82,0,0,1,1.75.57,1.75,1.75,0,0,1,.62.67,2.52,2.52,0,0,1,.25,1.1c.06,1.28.11,2.58.15,3.92a30,30,0,0,0,.31,4h-2.77a21.33,21.33,0,0,1-.33-3.71q0-1.94,0-3.63a1.67,1.67,0,0,0-.41-1.27,2.13,2.13,0,0,0-1.45-.3V44.4Zm2.77-11.25h.56a1.21,1.21,0,0,0,1.06-.38,1.39,1.39,0,0,0,.24-.86V28.43c0-.65-.41-1-1.14-.95h-.72Z" transform="translate(-6.67 -7.01)" style="fill:#002b55"/><path d="M74.58,49.51a2.06,2.06,0,0,1-2,2.32,2,2,0,0,1-2-2.23,2.1,2.1,0,0,1,2-2.32A2,2,0,0,1,74.58,49.51Zm-3.42.07c0,1,.51,1.79,1.41,1.79S74,50.54,74,49.54s-.46-1.8-1.41-1.8S71.16,48.61,71.16,49.58Z" transform="translate(-6.67 -7.01)" style="fill:#002b55"/><path d="M75.3,49.45c0-.33,0-.59,0-.86h.51l0,.53h0a1.18,1.18,0,0,1,1-.6c.44,0,1.12.26,1.12,1.35v1.89h-.58V49.94c0-.51-.19-.94-.73-.94a.82.82,0,0,0-.77.59.73.73,0,0,0,0,.27v1.9H75.3Z" transform="translate(-6.67 -7.01)" style="fill:#002b55"/><path d="M82.08,51.76l0-.4h0a1.19,1.19,0,0,1-1,.47.9.9,0,0,1-1-.9c0-.77.68-1.19,1.91-1.18v-.07a.65.65,0,0,0-.72-.73,1.64,1.64,0,0,0-.83.23l-.13-.38a2,2,0,0,1,1-.28c1,0,1.21.66,1.21,1.3V51a4.33,4.33,0,0,0,0,.76ZM82,50.15c-.63,0-1.34.09-1.34.71a.51.51,0,0,0,.54.55.78.78,0,0,0,.77-.53.62.62,0,0,0,0-.18Z" transform="translate(-6.67 -7.01)" style="fill:#002b55"/><path d="M83.48,49.45c0-.33,0-.59,0-.86H84l0,.53h0a1.17,1.17,0,0,1,1-.6c.43,0,1.12.26,1.12,1.35v1.89H85.6V49.94c0-.51-.19-.94-.73-.94a.83.83,0,0,0-.78.59,1,1,0,0,0,0,.27v1.9h-.57Z" transform="translate(-6.67 -7.01)" style="fill:#002b55"/><path d="M88.82,50.28a1,1,0,0,0,1.09,1.1,2.07,2.07,0,0,0,.87-.16l.1.41a2.56,2.56,0,0,1-1,.2,1.47,1.47,0,0,1-1.56-1.6,1.54,1.54,0,0,1,1.49-1.71A1.35,1.35,0,0,1,91.07,50c0,.11,0,.21,0,.26Zm1.69-.41a.81.81,0,0,0-.8-.93.94.94,0,0,0-.88.93Z" transform="translate(-6.67 -7.01)" style="fill:#002b55"/><path d="M92,48.59l.62,1.79a7.55,7.55,0,0,1,.26.81h0a7.68,7.68,0,0,1,.27-.81l.61-1.79h.6l-1.24,3.17h-.55l-1.2-3.17Z" transform="translate(-6.67 -7.01)" style="fill:#002b55"/><path d="M95.18,50.28a1,1,0,0,0,1.09,1.1,2.16,2.16,0,0,0,.88-.16l.1.41a2.62,2.62,0,0,1-1.06.2,1.48,1.48,0,0,1-1.56-1.6,1.55,1.55,0,0,1,1.49-1.71A1.35,1.35,0,0,1,97.43,50a1.51,1.51,0,0,1,0,.26Zm1.69-.41a.81.81,0,0,0-.8-.93,1,1,0,0,0-.88.93Z" transform="translate(-6.67 -7.01)" style="fill:#002b55"/><path d="M98.14,49.58c0-.37,0-.69,0-1h.5l0,.63h0a1,1,0,0,1,.87-.7l.17,0v.55a.62.62,0,0,0-.2,0,.8.8,0,0,0-.77.74,1.86,1.86,0,0,0,0,.26v1.69h-.57Z" transform="translate(-6.67 -7.01)" style="fill:#002b55"/><path d="M100.31,47.12h.58v4.64h-.58Z" transform="translate(-6.67 -7.01)" style="fill:#002b55"/><path d="M103.61,51.76l0-.4h0a1.16,1.16,0,0,1-1,.47.89.89,0,0,1-1-.9c0-.77.68-1.19,1.9-1.18v-.07a.65.65,0,0,0-.72-.73,1.6,1.6,0,0,0-.82.23l-.14-.38a2,2,0,0,1,1-.28c1,0,1.2.66,1.2,1.3V51a4.33,4.33,0,0,0,0,.76Zm-.09-1.61c-.62,0-1.34.09-1.34.71a.51.51,0,0,0,.55.55.78.78,0,0,0,.76-.53.62.62,0,0,0,0-.18Z" transform="translate(-6.67 -7.01)" style="fill:#002b55"/><path d="M104.93,51.17a1.43,1.43,0,0,0,.76.23c.42,0,.62-.21.62-.47s-.17-.42-.59-.58-.84-.52-.84-.9a1,1,0,0,1,1.09-.93,1.54,1.54,0,0,1,.78.2l-.14.42A1.26,1.26,0,0,0,106,49c-.34,0-.53.19-.53.43s.19.38.6.53.83.49.83,1-.43.95-1.18.95a1.8,1.8,0,0,1-.89-.22Z" transform="translate(-6.67 -7.01)" style="fill:#002b55"/><path d="M108.3,47.69v.9h.82V49h-.82v1.71c0,.39.11.62.43.62a1.22,1.22,0,0,0,.33,0l0,.43a1.32,1.32,0,0,1-.51.08.8.8,0,0,1-.62-.24,1.16,1.16,0,0,1-.23-.83V49h-.49v-.44h.49v-.75Z" transform="translate(-6.67 -7.01)" style="fill:#002b55"/><path d="M110.41,47.7a.36.36,0,1,1-.71,0,.35.35,0,0,1,.36-.36A.34.34,0,0,1,110.41,47.7Zm-.64,4.06V48.59h.57v3.17Z" transform="translate(-6.67 -7.01)" style="fill:#002b55"/><path d="M111.3,49.45c0-.33,0-.59,0-.86h.51l0,.53h0a1.18,1.18,0,0,1,1-.6c.44,0,1.12.26,1.12,1.35v1.89h-.58V49.94c0-.51-.19-.94-.73-.94a.81.81,0,0,0-.77.59.73.73,0,0,0,0,.27v1.9h-.58Z" transform="translate(-6.67 -7.01)" style="fill:#002b55"/><path d="M117.66,48.59c0,.23,0,.49,0,.88v1.84a1.84,1.84,0,0,1-.45,1.44,1.69,1.69,0,0,1-1.16.38,2,2,0,0,1-1-.26l.14-.44a1.81,1.81,0,0,0,.93.25c.59,0,1-.31,1-1.11v-.35h0a1.12,1.12,0,0,1-1,.53,1.41,1.41,0,0,1-1.34-1.54,1.52,1.52,0,0,1,1.42-1.69,1.06,1.06,0,0,1,1,.55h0l0-.48Zm-.59,1.26a1.12,1.12,0,0,0,0-.27.85.85,0,0,0-.81-.61c-.55,0-.94.47-.94,1.2s.31,1.14.93,1.14a.83.83,0,0,0,.8-.59.84.84,0,0,0,0-.31Z" transform="translate(-6.67 -7.01)" style="fill:#002b55"/><path d="M122.14,51.27h0a1.11,1.11,0,0,1-1,.56,1.45,1.45,0,0,1-1.34-1.6,1.53,1.53,0,0,1,1.44-1.71,1.05,1.05,0,0,1,1,.55h0l0-.48h.55c0,.27,0,.55,0,.88v3.59h-.58Zm0-1.39a.93.93,0,0,0,0-.24.85.85,0,0,0-.83-.66c-.59,0-1,.51-1,1.22s.3,1.18.93,1.18a.87.87,0,0,0,.83-.63,1.26,1.26,0,0,0,0-.28Z" transform="translate(-6.67 -7.01)" style="fill:#002b55"/><path d="M126.32,50.9c0,.33,0,.61,0,.86h-.51l0-.51h0a1.21,1.21,0,0,1-1.05.58c-.5,0-1.09-.27-1.09-1.38V48.59h.57v1.76c0,.6.19,1,.71,1a.82.82,0,0,0,.76-.53.88.88,0,0,0,0-.29V48.59h.58Z" transform="translate(-6.67 -7.01)" style="fill:#002b55"/><path d="M127.6,50.28a1,1,0,0,0,1.08,1.1,2.16,2.16,0,0,0,.88-.16l.1.41a2.62,2.62,0,0,1-1.06.2,1.47,1.47,0,0,1-1.55-1.6,1.54,1.54,0,0,1,1.48-1.71,1.34,1.34,0,0,1,1.31,1.5,1.51,1.51,0,0,1,0,.26Zm1.68-.41a.81.81,0,0,0-.79-.93,1,1,0,0,0-.89.93Z" transform="translate(-6.67 -7.01)" style="fill:#002b55"/><path d="M130.48,51.17a1.43,1.43,0,0,0,.76.23c.41,0,.61-.21.61-.47s-.16-.42-.59-.58-.84-.52-.84-.9a1,1,0,0,1,1.1-.93,1.54,1.54,0,0,1,.78.2l-.15.42a1.2,1.2,0,0,0-.65-.18c-.34,0-.53.19-.53.43s.19.38.61.53.83.49.83,1-.43.95-1.19.95a1.83,1.83,0,0,1-.89-.22Z" transform="translate(-6.67 -7.01)" style="fill:#002b55"/><path d="M133.84,47.69v.9h.83V49h-.83v1.71c0,.39.11.62.43.62a1.37,1.37,0,0,0,.34,0l0,.43a1.32,1.32,0,0,1-.51.08.82.82,0,0,1-.62-.24,1.21,1.21,0,0,1-.22-.83V49h-.49v-.44h.49v-.75Z" transform="translate(-6.67 -7.01)" style="fill:#002b55"/><path d="M136.76,51.76V49h-.44v-.44h.44v-.15a1.47,1.47,0,0,1,.37-1.1,1.09,1.09,0,0,1,.77-.3,1.24,1.24,0,0,1,.49.1l-.08.44a.83.83,0,0,0-.37-.07c-.49,0-.61.43-.61.91v.17h.77V49h-.77v2.73Z" transform="translate(-6.67 -7.01)" style="fill:#002b55"/><path d="M141.4,50.15a1.55,1.55,0,0,1-1.58,1.68,1.5,1.5,0,0,1-1.52-1.62,1.55,1.55,0,0,1,1.57-1.69A1.5,1.5,0,0,1,141.4,50.15Zm-2.52,0c0,.69.4,1.21,1,1.21s1-.51,1-1.23c0-.53-.27-1.21-.95-1.21S138.88,49.58,138.88,50.19Z" transform="translate(-6.67 -7.01)" style="fill:#002b55"/><path d="M142.12,49.58c0-.37,0-.69,0-1h.5l0,.63h0a1,1,0,0,1,.87-.7l.17,0v.55a.62.62,0,0,0-.2,0,.8.8,0,0,0-.77.74,1,1,0,0,0,0,.26v1.69h-.57Z" transform="translate(-6.67 -7.01)" style="fill:#002b55"/><path d="M145.63,51.76c0-.21,0-.53,0-.82V47.12h.57v2h0a1.18,1.18,0,0,1,1.08-.59,1.42,1.42,0,0,1,1.34,1.62,1.5,1.5,0,0,1-1.42,1.69,1.11,1.11,0,0,1-1.06-.59h0l0,.52Zm.59-1.27a.66.66,0,0,0,0,.21.89.89,0,0,0,.86.68c.6,0,1-.49,1-1.22s-.32-1.18-.94-1.18a.93.93,0,0,0-.88.71,1.29,1.29,0,0,0,0,.23Z" transform="translate(-6.67 -7.01)" style="fill:#002b55"/><path d="M149.7,50.28a1,1,0,0,0,1.08,1.1,2.12,2.12,0,0,0,.88-.16l.1.41a2.58,2.58,0,0,1-1.06.2,1.47,1.47,0,0,1-1.55-1.6,1.54,1.54,0,0,1,1.48-1.71,1.34,1.34,0,0,1,1.31,1.5,1.51,1.51,0,0,1,0,.26Zm1.69-.41a.82.82,0,0,0-.8-.93,1,1,0,0,0-.89.93Z" transform="translate(-6.67 -7.01)" style="fill:#002b55"/><path d="M153.35,47.69v.9h.82V49h-.82v1.71c0,.39.11.62.43.62a1.37,1.37,0,0,0,.34,0l0,.43a1.32,1.32,0,0,1-.51.08.82.82,0,0,1-.62-.24,1.21,1.21,0,0,1-.22-.83V49h-.49v-.44h.49v-.75Z" transform="translate(-6.67 -7.01)" style="fill:#002b55"/><path d="M155.52,47.69v.9h.82V49h-.82v1.71c0,.39.11.62.43.62a1.22,1.22,0,0,0,.33,0l0,.43a1.32,1.32,0,0,1-.51.08.8.8,0,0,1-.62-.24,1.16,1.16,0,0,1-.23-.83V49h-.49v-.44H155v-.75Z" transform="translate(-6.67 -7.01)" style="fill:#002b55"/><path d="M157.27,50.28a1,1,0,0,0,1.09,1.1,2.16,2.16,0,0,0,.88-.16l.09.41a2.56,2.56,0,0,1-1.05.2,1.47,1.47,0,0,1-1.56-1.6,1.54,1.54,0,0,1,1.49-1.71,1.35,1.35,0,0,1,1.31,1.5c0,.11,0,.21,0,.26Zm1.69-.41a.81.81,0,0,0-.8-.93.94.94,0,0,0-.88.93Z" transform="translate(-6.67 -7.01)" style="fill:#002b55"/><path d="M160.23,49.58c0-.37,0-.69,0-1h.51l0,.63h0a1,1,0,0,1,.88-.7l.16,0v.55a.53.53,0,0,0-.19,0,.79.79,0,0,0-.77.74,1,1,0,0,0,0,.26v1.69h-.57Z" transform="translate(-6.67 -7.01)" style="fill:#002b55"/><path d="M163.68,51.17a1.43,1.43,0,0,0,.76.23c.42,0,.62-.21.62-.47s-.17-.42-.59-.58c-.57-.2-.84-.52-.84-.9a1,1,0,0,1,1.09-.93,1.54,1.54,0,0,1,.78.2l-.14.42a1.26,1.26,0,0,0-.65-.18c-.34,0-.53.19-.53.43s.19.38.6.53.83.49.83,1-.43.95-1.18.95a1.8,1.8,0,0,1-.89-.22Z" transform="translate(-6.67 -7.01)" style="fill:#002b55"/><path d="M169.22,50.15a1.55,1.55,0,0,1-1.58,1.68,1.5,1.5,0,0,1-1.52-1.62,1.55,1.55,0,0,1,1.57-1.69A1.5,1.5,0,0,1,169.22,50.15Zm-2.52,0c0,.69.4,1.21,1,1.21s1-.51,1-1.23c0-.53-.27-1.21-.95-1.21S166.7,49.58,166.7,50.19Z" transform="translate(-6.67 -7.01)" style="fill:#002b55"/><path d="M169.94,47.12h.58v4.64h-.58Z" transform="translate(-6.67 -7.01)" style="fill:#002b55"/><path d="M174.14,50.9c0,.33,0,.61,0,.86h-.51l0-.51h0a1.19,1.19,0,0,1-1.05.58c-.49,0-1.09-.27-1.09-1.38V48.59h.58v1.76c0,.6.18,1,.7,1a.82.82,0,0,0,.76-.53.68.68,0,0,0,.06-.29V48.59h.57Z" transform="translate(-6.67 -7.01)" style="fill:#002b55"/><path d="M175.79,47.69v.9h.83V49h-.83v1.71c0,.39.11.62.43.62a1.31,1.31,0,0,0,.34,0l0,.43a1.29,1.29,0,0,1-.51.08.82.82,0,0,1-.62-.24,1.21,1.21,0,0,1-.22-.83V49h-.49v-.44h.49v-.75Z" transform="translate(-6.67 -7.01)" style="fill:#002b55"/><path d="M177.91,47.7a.36.36,0,1,1-.36-.36A.35.35,0,0,1,177.91,47.7Zm-.65,4.06V48.59h.58v3.17Z" transform="translate(-6.67 -7.01)" style="fill:#002b55"/><path d="M181.66,50.15a1.54,1.54,0,0,1-1.57,1.68,1.5,1.5,0,0,1-1.52-1.62,1.55,1.55,0,0,1,1.57-1.69A1.5,1.5,0,0,1,181.66,50.15Zm-2.51,0c0,.69.4,1.21,1,1.21s1-.51,1-1.23c0-.53-.26-1.21-.95-1.21S179.15,49.58,179.15,50.19Z" transform="translate(-6.67 -7.01)" style="fill:#002b55"/><path d="M182.39,49.45c0-.33,0-.59,0-.86h.51l0,.53h0a1.17,1.17,0,0,1,1.05-.6c.44,0,1.12.26,1.12,1.35v1.89h-.58V49.94c0-.51-.19-.94-.73-.94a.81.81,0,0,0-.77.59.73.73,0,0,0,0,.27v1.9h-.58Z" transform="translate(-6.67 -7.01)" style="fill:#002b55"/><path d="M185.94,51.17a1.45,1.45,0,0,0,.76.23c.42,0,.62-.21.62-.47s-.16-.42-.59-.58-.84-.52-.84-.9a1,1,0,0,1,1.1-.93,1.47,1.47,0,0,1,.77.2l-.14.42A1.2,1.2,0,0,0,187,49c-.34,0-.53.19-.53.43s.19.38.6.53.84.49.84,1-.44.95-1.19.95a1.8,1.8,0,0,1-.89-.22Z" transform="translate(-6.67 -7.01)" style="fill:#002b55"/><path d="M55,13.89A27.8,27.8,0,1,1,14.74,13,26,26,0,0,0,9.06,29.3,25.53,25.53,0,0,0,34.33,55.09c14,0,25.26-11.54,25.26-25.79a26.07,26.07,0,0,0-4.84-15.19l-3.48,2.68L49.1,7l9.11,4.43Z" transform="translate(-6.67 -7.01)" style="fill:#0590c7;fill-rule:evenodd"/><polygon points="15.4 37.88 15.55 34.45 13.45 33.12 13.56 16.26 27.97 7.72 30.46 9.31 33.27 7.49 27.88 4.25 10.23 14.6 10.3 34.88 15.4 37.88" style="fill:#002b55;fill-rule:evenodd"/><polygon points="22.35 41.82 17.33 38.79 17.38 18.79 35 8.33 40.19 11.48 37.3 13.37 34.96 11.89 20.3 20.29 20.31 37.29 22.35 38.46 22.35 41.82" style="fill:#002b55;fill-rule:evenodd"/><path d="M31.19,29.82,49,19.51l3.19,2.15.15,20L34.64,52l-3.41-2.08,0-20.1Zm2.86,1.64,0,16.85.59.36,14.75-8.61L49.3,23.19l-.46-.31Z" transform="translate(-6.67 -7.01)" style="fill:#002b55;fill-rule:evenodd"/><polygon points="29.32 27.87 30.23 29.26 40.6 23.24 39.72 21.88 29.32 27.87" style="fill:#0590c7;fill-rule:evenodd"/><polygon points="29.32 31.5 30.23 32.9 40.6 26.87 39.72 25.51 29.32 31.5" style="fill:#0590c7;fill-rule:evenodd"/><polygon points="29.32 35.99 30.23 37.38 40.6 31.36 39.72 29.99 29.32 35.99" style="fill:#0590c7;fill-rule:evenodd"/></svg>